# xmcd
# 
# Track frame offsets:
#     150
#     20552
#     35722
#     48823
#     61642
#     84340
#     98728
#     125930
#     139639
#     152874
#     168128
#     185611
#     200512
#     217250
#     235399
#     248095
#     275182
#     288721
#     306639
#     346514
# 
# Disc length: 4655
# 
# Revision: 0
# Processed by: cddbd v1.5.2PL0 Copyright (c) Steve Scherf et al.
# Submitted via: fre:ac v1.0.17
# 
DISCID=2f122d14
DTITLE=Stafan Grossman - Blues For The Mann
DYEAR=2000
DGENRE=Blues
TTITLE0=Just A Closer Walk
TTITLE1=Struttin' Rag
TTITLE2=Richland Woman Blues
TTITLE3=Old Country Rock
TTITLE4=Innocence Abroad
TTITLE5=Shake That Thing
TTITLE6=Blues For The Mann
TTITLE7=Bermuda Triangle Exit
TTITLE8=Buddy Bolden Blues
TTITLE9=Diddie Wa Diddie
TTITLE10=Northern Skies, Southern Blues
TTITLE11=C
TTITLE12=One Kind Favor
TTITLE13=Hesitation Blues
TTITLE14=Sitting On A Rooftop with Mississippi John Hurt
TTITLE15=All My Friends Are Gone
TTITLE16=Shake Baby Shake
TTITLE17=Special Rider Blues
TTITLE18=Betty and Dupree
TTITLE19=Data track
EXTD=
EXTT0=
EXTT1=
EXTT2=
EXTT3=
EXTT4=
EXTT5=
EXTT6=
EXTT7=
EXTT8=
EXTT9=
EXTT10=
EXTT11=
EXTT12=
EXTT13=
EXTT14=
EXTT15=
EXTT16=
EXTT17=
EXTT18=
EXTT19=
PLAYORDER=
